name rise43.5482peak65.4966fall89.1036.mot
datacolumns 19
datarows 20
range 21.44658300000000 21.47824700000000
endheader
time	ground_force1_vx	ground_force1_vy	ground_force1_vz	ground_force1_px	ground_force1_py	ground_force1_pz	ground_force2_vx	ground_force2_vy	ground_force2_vz	ground_force2_px	ground_force2_py	ground_force2_pz	ground_torque1_x	ground_torque1_y	ground_torque1_z	ground_torque2_x	ground_torque2_y	ground_torque2_z	
21.44658300000000	-8.45937200000000	41.16670600000000	-9.37792400000000	0.28786400000000	0.00000000000000	0.10764700000000	-40.69274900000000	801.65860399999997	-59.37691800000000	0.12301000000000	0.00000000000000	-0.09300900000000	0.00000000000000	-5.27593400000000	0.00000000000000	0.00000000000000	-21.76979000000000	0.00000000000000	
21.44824300000000	-9.37546900000000	48.38571800000000	-10.55530200000000	0.29464000000000	0.00000000000000	0.10843600000000	-41.69728300000000	799.35572800000000	-59.09873500000000	0.12205600000000	0.00000000000000	-0.09292900000000	0.00000000000000	-6.01985200000000	0.00000000000000	0.00000000000000	-21.77800900000000	0.00000000000000	
21.44994800000000	-10.15717800000000	55.72660700000000	-11.62842100000000	0.30074300000000	0.00000000000000	0.10914800000000	-42.71295700000000	796.91498799999999	-58.80277500000000	0.12111000000000	0.00000000000000	-0.09284500000000	0.00000000000000	-6.71737500000000	0.00000000000000	0.00000000000000	-21.78671300000000	0.00000000000000	
21.45157900000000	-10.78134600000000	63.09559900000000	-12.57235900000000	0.30628500000000	0.00000000000000	0.10979600000000	-43.73857900000000	794.33301700000004	-58.48869900000000	0.12017000000000	0.00000000000000	-0.09275900000000	0.00000000000000	-7.35227400000000	0.00000000000000	0.00000000000000	-21.79570700000000	0.00000000000000	
21.45324900000000	-11.23340800000000	70.42023500000001	-13.37045500000000	0.31135100000000	0.00000000000000	0.11039100000000	-44.77286500000000	791.60642399999995	-58.15617800000000	0.11923700000000	0.00000000000000	-0.09267000000000	0.00000000000000	-7.91301600000000	0.00000000000000	0.00000000000000	-21.80478000000000	0.00000000000000	
21.45491000000000	-11.50736000000000	77.65171800000000	-14.01443600000000	0.31601000000000	0.00000000000000	0.11094200000000	-45.81444100000000	788.73180000000002	-57.80490200000000	0.11831300000000	0.00000000000000	-0.09257700000000	0.00000000000000	-8.39298700000000	0.00000000000000	0.00000000000000	-21.81370600000000	0.00000000000000	
21.45658500000000	-11.60504600000000	84.76493300000000	-14.50383200000000	0.32031800000000	0.00000000000000	0.11145400000000	-46.86184600000000	785.70573400000001	-57.43457600000000	0.11739700000000	0.00000000000000	-0.09248200000000	0.00000000000000	-8.79027700000000	0.00000000000000	0.00000000000000	-21.82224300000000	0.00000000000000	
21.45824300000000	-11.53492100000000	91.75650800000000	-14.84485400000000	0.32432000000000	0.00000000000000	0.11193300000000	-47.91353200000000	782.52481999999998	-57.04492600000000	0.11649100000000	0.00000000000000	-0.09238400000000	0.00000000000000	-9.10711300000000	0.00000000000000	0.00000000000000	-21.83013200000000	0.00000000000000	
21.45993700000000	-11.31049200000000	98.64143100000000	-15.04891800000000	0.32805300000000	0.00000000000000	0.11238400000000	-48.96786500000000	779.18566899999996	-56.63570200000000	0.11559300000000	0.00000000000000	-0.09228300000000	0.00000000000000	-9.34904500000000	0.00000000000000	0.00000000000000	-21.83710300000000	0.00000000000000	
21.46157900000000	-10.94861600000000	105.44874600000000	-15.13099800000000	0.33154700000000	0.00000000000000	0.11281000000000	-50.02313000000000	775.68492300000003	-56.20667600000000	0.11470600000000	0.00000000000000	-0.09217900000000	0.00000000000000	-9.52400000000000	0.00000000000000	0.00000000000000	-21.84287100000000	0.00000000000000	
21.46324500000000	-10.46782100000000	112.21684300000000	-15.10797600000000	0.33482900000000	0.00000000000000	0.11321500000000	-51.07753400000000	772.01926800000001	-55.75765100000000	0.11383000000000	0.00000000000000	-0.09207200000000	0.00000000000000	-9.64130100000000	0.00000000000000	0.00000000000000	-21.84713600000000	0.00000000000000	
21.46492400000000	-9.88679000000000	118.98881299999999	-14.99712500000000	0.33791900000000	0.00000000000000	0.11360000000000	-52.12920500000000	768.18544499999996	-55.28845700000000	0.11296400000000	0.00000000000000	-0.09196200000000	0.00000000000000	-9.71073900000000	0.00000000000000	0.00000000000000	-21.84959000000000	0.00000000000000	
21.46658300000000	-9.22308500000000	125.80820500000000	-14.81481700000000	0.34083700000000	0.00000000000000	0.11396800000000	-53.17620200000000	764.18026699999996	-54.79896000000000	0.11211000000000	0.00000000000000	-0.09184900000000	0.00000000000000	-9.74176600000000	0.00000000000000	0.00000000000000	-21.84990900000000	0.00000000000000	
21.46824900000000	-8.49219000000000	132.71547100000001	-14.57552400000000	0.34359800000000	0.00000000000000	0.11432100000000	-54.21651300000000	760.00063399999999	-54.28905600000000	0.11126700000000	0.00000000000000	-0.09173200000000	0.00000000000000	-9.74285600000000	0.00000000000000	0.00000000000000	-21.84776200000000	0.00000000000000	
21.46993500000000	-7.70686900000000	139.74523800000000	-14.29114500000000	0.34621500000000	0.00000000000000	0.11466100000000	-55.24806400000000	755.64354700000001	-53.75868200000000	0.11043700000000	0.00000000000000	-0.09161300000000	0.00000000000000	-9.72104100000000	0.00000000000000	0.00000000000000	-21.84280700000000	0.00000000000000	
21.47157700000000	-6.87685900000000	146.92447899999999	-13.97063400000000	0.34869900000000	0.00000000000000	0.11498800000000	-56.26872100000000	751.10612600000002	-53.20781200000000	0.10961900000000	0.00000000000000	-0.09149000000000	0.00000000000000	-9.68165300000000	0.00000000000000	0.00000000000000	-21.83469500000000	0.00000000000000	
21.47324300000000	-6.00883300000000	154.27155600000000	-13.61992500000000	0.35106000000000	0.00000000000000	0.11530400000000	-57.27629800000000	746.38562700000000	-52.63646100000000	0.10881300000000	0.00000000000000	-0.09136400000000	0.00000000000000	-9.62822700000000	0.00000000000000	0.00000000000000	-21.82307000000000	0.00000000000000	
21.47493000000000	-5.10660900000000	161.79604800000001	-13.24209300000000	0.35330600000000	0.00000000000000	0.11561000000000	-58.26855800000000	741.47946200000001	-52.04468700000000	0.10802100000000	0.00000000000000	-0.09123600000000	0.00000000000000	-9.56257000000000	0.00000000000000	0.00000000000000	-21.80756800000000	0.00000000000000	
21.47658500000000	-4.17153600000000	169.49924500000000	-12.83770300000000	0.35544600000000	0.00000000000000	0.11590700000000	-59.24322400000000	736.38521300000002	-51.43259200000000	0.10724200000000	0.00000000000000	-0.09110400000000	0.00000000000000	-9.48494000000000	0.00000000000000	0.00000000000000	-21.78782200000000	0.00000000000000	
21.47824700000000	-3.20299400000000	177.37513100000001	-12.40527900000000	0.35748300000000	0.00000000000000	0.11619600000000	-60.19798100000000	731.10065299999997	-50.80032400000000	0.10647600000000	0.00000000000000	-0.09096800000000	0.00000000000000	-9.39431900000000	0.00000000000000	0.00000000000000	-21.76346300000000	0.00000000000000	
